HIERARCHY
ROOT Hips
{
  OFFSET -1.56614 0.00 -1.85809
  CHANNELS 6 Xposition Yposition Zposition Zrotation Xrotation Yrotation
  JOINT LHipJoint
  {
    OFFSET 0 0 0
    CHANNELS 3 Zrotation Xrotation Yrotation
    JOINT LeftUpLeg
    {
      OFFSET 1.8 -1.4 0.085
      CHANNELS 3 Zrotation Xrotation Yrotation
      JOINT LeftLeg
      {
        OFFSET 2.215 -6 0
        CHANNELS 3 Zrotation Xrotation Yrotation
        JOINT LeftFoot
        {
          OFFSET 2.5 -6.9 0
          CHANNELS 3 Zrotation Xrotation Yrotation
          JOINT LeftToeBase
          {
            OFFSET 0.2 -0.5 1.95
            CHANNELS 3 Zrotation Xrotation Yrotation
            End Site
            {
              OFFSET 0 0 1
            }
          }
        }
      }
    }
  }
  JOINT RHipJoint
  {
    OFFSET 0 0 0
    CHANNELS 3 Zrotation Xrotation Yrotation
    JOINT RightUpLeg
    {
      OFFSET -1.8 -1.4 0.085
      CHANNELS 3 Zrotation Xrotation Yrotation
      JOINT RightLeg
      {
        OFFSET -2.215 -6 0
        CHANNELS 3 Zrotation Xrotation Yrotation
        JOINT RightFoot
        {
          OFFSET -2.5 -6.9 0
          CHANNELS 3 Zrotation Xrotation Yrotation
          JOINT RightToeBase
          {
            OFFSET -0.2 -0.5 1.95
            CHANNELS 3 Zrotation Xrotation Yrotation
            End Site
            {
              OFFSET 0 0 1
            }
          }
        }
      }
    }
  }
  JOINT LowerBack
  {
    OFFSET 0 0 0
    CHANNELS 3 Zrotation Xrotation Yrotation
    JOINT Spine
    {
      OFFSET -0.087 1.94 -0.2889
      CHANNELS 3 Zrotation Xrotation Yrotation
      JOINT Spine1
      {
        OFFSET 0 1.95 0.06
        CHANNELS 3 Zrotation Xrotation Yrotation
        JOINT Neck
        {
          OFFSET 0 0 0
          CHANNELS 3 Zrotation Xrotation Yrotation
          JOINT Neck1
          {
            OFFSET 0 1.6 0.34
            CHANNELS 3 Zrotation Xrotation Yrotation
            JOINT Head
            {
              OFFSET 0 1.667 -0.24
              CHANNELS 3 Zrotation Xrotation Yrotation
              End Site
              {
                OFFSET 0 1.686 -0.12
              }
            }
          }
        }
        JOINT LeftShoulder
        {
          OFFSET 0 0 0
          CHANNELS 3 Zrotation Xrotation Yrotation
          JOINT LeftArm
          {
            OFFSET 2.7 1.55 -0.73
            CHANNELS 3 Zrotation Xrotation Yrotation
            JOINT LeftForeArm
            {
              OFFSET 5.45 0 0
              CHANNELS 3 Zrotation Xrotation Yrotation
              JOINT LeftHand
              {
                OFFSET 3.45 0 0
                CHANNELS 3 Zrotation Xrotation Yrotation
                JOINT LeftFingerBase
                {
                  OFFSET 0 0 0
                  CHANNELS 3 Zrotation Xrotation Yrotation
                  JOINT LeftHandIndex1
                  {
                    OFFSET 0.75 0 0
                    CHANNELS 3 Zrotation Xrotation Yrotation
                    End Site
                    {
                      OFFSET 0.6 0 0
                    }
                  }
                }
                JOINT LThumb
                {
                  OFFSET 0 0 0
                  CHANNELS 3 Zrotation Xrotation Yrotation
                  End Site
                  {
                    OFFSET 0.59 0 0.59
                  }
                }
              }
            }
          }
        }
        JOINT RightShoulder
        {
          OFFSET 0 0 0
          CHANNELS 3 Zrotation Xrotation Yrotation
          JOINT RightArm
          {
            OFFSET -2.7 1.55 -0.73
            CHANNELS 3 Zrotation Xrotation Yrotation
            JOINT RightForeArm
            {
              OFFSET -5.45 0 0
              CHANNELS 3 Zrotation Xrotation Yrotation
              JOINT RightHand
              {
                OFFSET -3.45 0 0
                CHANNELS 3 Zrotation Xrotation Yrotation
                JOINT RightFingerBase
                {
                  OFFSET 0 0 0
                  CHANNELS 3 Zrotation Xrotation Yrotation
                  JOINT RightHandIndex1
                  {
                    OFFSET -0.75 0 0
                    CHANNELS 3 Zrotation Xrotation Yrotation
                    End Site
                    {
                      OFFSET -0.6 0 0
                    }
                  }
                }
                JOINT RThumb
                {
                  OFFSET 0 0 0
                  CHANNELS 3 Zrotation Xrotation Yrotation
                  End Site
                  {
                    OFFSET -0.59 0 0.59
                  }
                }
              }
            }
          }
        }
      }
    }
  }
}
MOTION
Frames:	7
Frame Time:	0.00833333
-0.926565 18.3343 -4.92551 -0.00173252 0.0011406 0.00239504 3.169e-019 3.88251e-019 -3.88251e-019 -16.917 -5.09908 2.26854 0.698297 7.95305 3.54072 -1.04555 -2.79037 -5.88642 5.12632e-016 -1.85935e-013 -1.31232e-013 3.169e-019 3.88251e-019 -3.88251e-019 21.9928 -6.77705 0.689424 -1.53099 9.01511 -14.9891 2.58339 -1.71899 14.5571 -2.23691e-015 4.46644e-014 9.49189e-014 3.169e-019 3.88251e-019 -3.88251e-019 0.00447527 -0.00157551 0.000653719 -0.00758169 -0.00038631 0.00193992 0.00128019 -16.0003 -0.00552247 0.00302237 20.9997 -0.0011804 -0.00227398 11.0042 0.00208864 0.341142 -0.00325437 3.49347 -30.8719 -46.1174 -34.2092 6.43851 52.2294 0.00727993 0.969964 -1.57199 -4.09348 6.62086e-032 1.19271e-015 -3.18055e-015 2.98177e-016 1.19271e-015 -0 2.20695e-032 3.97569e-016 -3.18055e-015 -0.345278 -0.00389528 -3.50542 14.712 -24.0054 21.62 7.01969 24.1397 7.09592 -1.92593 -0.74847 -5.82452 7.48135e-008 4.18487e-007 -3.70229e-008 -3.18055e-015 1.59028e-015 -6.36111e-015 -9.93923e-016 -1.98785e-016 3.18055e-015 
-0.926849 18.3342 -4.92256 -0.00894023 0.00526557 0.00239504 -5.88965e-019 0 3.88251e-019 -16.9188 -5.1157 2.28068 0.684594 7.99794 3.53231 -1.01761 -2.85364 -5.77619 2.89137e-015 -1.85913e-013 -1.31248e-013 -5.88965e-019 0 3.88251e-019 21.9283 -6.4709 0.573735 -1.56867 8.54488 -14.925 3.21356 -1.8216 14.5948 3.82709e-015 4.44284e-014 9.49663e-014 -5.88965e-019 0 3.88251e-019 0.0244283 -0.00849201 0.00345639 -0.0395922 -0.00160192 0.0101367 0.0123201 -16.0009 -0.00552248 0.0149445 20.9991 -0.00600351 -0.0110669 11.0209 0.00968793 0.341142 -0.00325437 3.49347 -30.8846 -46.1228 -34.2415 6.50363 52.4298 0.00731298 0.752296 -1.57277 -4.01298 1.98785e-016 1.59028e-015 -0 9.93923e-017 1.59028e-015 3.18055e-015 9.93923e-017 3.97569e-016 -0 -0.345279 -0.00389524 -3.51347 14.7092 -23.9701 21.5773 7.03847 24.085 7.11947 -2.11758 -0.728931 -5.71913 7.48135e-008 4.18487e-007 -3.70229e-008 -2.78299e-015 -1.19271e-015 -6.36111e-015 3.97569e-016 1.98785e-016 -0 
-0.927117 18.3341 -4.91957 -0.0161924 0.00932055 0.00239504 1.20381e-018 0 -7.76503e-019 -16.9208 -5.1327 2.29281 0.670745 8.04408 3.52383 -0.989547 -2.91821 -5.66275 -3.9208e-015 -1.85913e-013 -1.31248e-013 1.20381e-018 0 -7.76503e-019 21.8631 -6.1576 0.455381 -1.60605 8.06364 -14.8605 3.85981 -1.92622 14.6338 -1.18902e-015 4.47266e-014 9.48513e-014 1.20381e-018 0 -7.76503e-019 0.0447103 -0.0155068 0.00628911 -0.0718719 -0.00276478 0.0184035 0.023333 -16.0015 -0.0055225 0.0268398 20.9985 -0.0108428 -0.0198153 11.0377 0.0171671 0.341142 -0.00325437 3.49347 -30.8978 -46.1282 -34.2745 6.57012 52.6354 0.00734731 0.532522 -1.57372 -3.93105 2.98177e-016 1.19271e-015 -0 4.41391e-032 7.95139e-016 -3.18055e-015 1.98785e-016 3.97569e-016 -0 -0.345279 -0.00389521 -3.52159 14.7063 -23.9344 21.5343 7.05784 24.0296 7.14317 -2.31066 -0.709443 -5.61482 7.48135e-008 4.18487e-007 -3.70229e-008 -3.18055e-015 -3.97569e-016 -6.36111e-015 -1.59028e-015 0 -0 
-0.927559 18.3339 -4.91703 -0.0229559 0.0141454 0.00239504 -6.89961e-019 0 -0 -16.9195 -5.14539 2.30502 0.658657 8.07643 3.51603 -0.96004 -2.96862 -5.58457 3.86883e-015 -1.85963e-013 -1.31148e-013 -6.89961e-019 0 -0 21.8207 -5.92253 0.368185 -1.63434 7.70054 -14.8143 4.33077 -2.0084 14.6583 -5.06823e-015 4.49253e-014 9.48948e-014 -6.89961e-019 0 -0 0.061382 -0.0214402 0.00879131 -0.101187 -0.0045078 0.0259009 0.0346442 -16.003 -0.00552254 0.039029 20.997 -0.0155033 -0.0291076 11.0542 0.0259777 0.341142 -0.00325437 3.49347 -30.9059 -46.1327 -34.3013 6.62152 52.783 0.0073722 0.335929 -1.57276 -3.865 1.98785e-016 1.59028e-015 -3.18055e-015 9.93923e-017 1.19271e-015 -6.36111e-015 9.93923e-017 3.97569e-016 -3.18055e-015 -0.34528 -0.00389518 -3.52886 14.7062 -23.9026 21.4941 7.07136 23.9825 7.16505 -2.48871 -0.689284 -5.49865 7.48135e-008 4.18487e-007 -3.70229e-008 -2.08724e-015 1.98785e-016 -0 1.49089e-015 -1.98785e-016 -0 
-0.928371 18.3338 -4.91543 -0.0287997 0.0206122 0.00234423 8.84276e-019 -3.10601e-018 -3.88251e-019 -16.9115 -5.14893 2.31757 0.650192 8.07964 3.5096 -0.926886 -2.98959 -5.58059 -3.85184e-015 -1.85926e-013 -1.31248e-013 8.84276e-019 -3.10601e-018 -3.88251e-019 21.8245 -5.85212 0.346385 -1.64546 7.58643 -14.8047 4.43137 -2.04385 14.6515 8.658e-016 4.49253e-014 9.49942e-014 8.84276e-019 -3.10601e-018 -3.88251e-019 0.0707911 -0.0250285 0.010672 -0.124658 -0.00762468 0.0319172 0.0466898 -16.0067 -0.00549716 0.0519451 20.9933 -0.0198431 -0.0394828 11.0703 0.0375918 0.341142 -0.00325437 3.49347 -30.9035 -46.1352 -34.3156 6.64115 52.8083 0.00737649 0.187323 -1.56774 -3.83223 9.93923e-017 5.96354e-016 -3.18055e-015 1.98785e-016 7.95139e-016 -6.36111e-015 -1.10348e-032 -1.98785e-016 -3.18055e-015 -0.34528 -0.00389516 -3.53435 14.7123 -23.8789 21.4594 7.07235 23.9533 7.18326 -2.63485 -0.667653 -5.357 7.48135e-008 4.18487e-007 -3.70229e-008 -3.67752e-015 1.98785e-016 -1.27222e-014 -8.94531e-016 -3.97569e-016 -3.18055e-015 
-0.929724 18.3336 -4.91508 -0.0350494 0.0295858 0.00126471 1.39481e-017 0 1.94126e-019 -16.8946 -5.13917 2.33337 0.645603 8.04201 3.50416 -0.872989 -2.97753 -5.67498 1.48428e-015 -1.85913e-013 -1.31198e-013 1.39481e-017 0 1.94126e-019 21.8954 -6.00044 0.412859 -1.63475 7.80219 -14.8429 4.02126 -2.02338 14.5924 -2.42618e-015 4.45278e-014 9.50812e-014 1.39481e-017 0 1.94126e-019 0.0755915 -0.0244597 0.0128381 -0.146271 -0.0148627 0.0380346 0.0611327 -16.0128 -0.00568277 0.0674512 20.9871 -0.024593 -0.05042 11.0869 0.0529715 0.341142 -0.00325437 3.49347 -30.8878 -46.134 -34.3185 6.6189 52.6689 0.00735294 0.0907299 -1.55672 -3.84096 2.98177e-016 3.97569e-016 -0 9.93923e-017 7.95139e-016 -3.18055e-015 1.98785e-016 -3.97569e-016 -0 -0.34528 -0.00389514 -3.53777 14.7278 -23.8644 21.427 7.05493 23.9469 7.19812 -2.73567 -0.643065 -5.17389 7.48135e-008 4.18487e-007 -3.70229e-008 -1.98785e-015 1.59028e-015 -3.18055e-015 -1.09332e-015 9.93923e-016 3.18055e-015 
-0.931359 18.3334 -4.91545 -0.0407551 0.0398269 4.49829e-005 -3.24589e-019 -1.2424e-017 -0 -16.8727 -5.12241 2.34969 0.643644 7.98222 3.49968 -0.814791 -2.94383 -5.82527 -3.11778e-015 -1.85951e-013 -1.31173e-013 -3.24589e-019 -1.2424e-017 -0 22.0023 -6.27287 0.528831 -1.61064 8.20543 -14.9089 3.33036 -1.96822 14.5087 -1.15738e-015 4.44284e-014 9.49445e-014 -3.24589e-019 -1.2424e-017 -0 0.0753801 -0.0220274 0.0146379 -0.16402 -0.0233475 0.0432257 0.0762479 -16.0206 -0.00591441 0.0836534 20.9794 -0.0291776 -0.0620991 11.1033 0.0704696 0.341142 -0.00325437 3.49347 -30.8643 -46.1312 -34.3125 6.57273 52.4372 0.00731421 0.0292498 -1.54259 -3.87453 9.93923e-017 7.95139e-016 3.18055e-015 1.98785e-016 3.97569e-016 -0 -2.20695e-032 3.97569e-016 3.18055e-015 -0.345281 -0.00389513 -3.53988 14.7479 -23.856 21.3982 7.02789 23.9539 7.21036 -2.81229 -0.617259 -4.97089 7.48135e-008 4.18487e-007 -3.70229e-008 -4.27387e-015 -5.96354e-016 -6.36111e-015 2.98177e-016 0 6.36111e-015 
